<mxfile host="app.diagrams.net" modified="2021-11-01T16:18:33.520Z" agent="5.0 (Windows NT 10.0; Win64; x64) AppleWebKit/537.36 (KHTML, like Gecko) Chrome/95.0.4638.69 Safari/537.36" etag="7HB9F8w1H_gI3IaQdlUj" version="15.6.3" type="github">
  <diagram id="huRN1xIDooEfWAkOysL0" name="Page-1">
    <mxGraphModel dx="2370" dy="1323" grid="1" gridSize="10" guides="1" tooltips="1" connect="1" arrows="1" fold="1" page="1" pageScale="1" pageWidth="2300" pageHeight="700" math="0" shadow="0">
      <root>
        <mxCell id="0" />
        <mxCell id="1" parent="0" />
        <mxCell id="gJvKJR8NiEOerQSg6qCT-1" value="Master" style="rounded=1;whiteSpace=wrap;html=1;fillColor=#dae8fc;strokeColor=#6c8ebf;" vertex="1" parent="1">
          <mxGeometry x="550" y="50" width="110" height="30" as="geometry" />
        </mxCell>
        <mxCell id="gJvKJR8NiEOerQSg6qCT-2" value="Dev" style="rounded=1;whiteSpace=wrap;html=1;fillColor=#f8cecc;strokeColor=#b85450;" vertex="1" parent="1">
          <mxGeometry x="720" y="50" width="110" height="30" as="geometry" />
        </mxCell>
        <mxCell id="gJvKJR8NiEOerQSg6qCT-3" value="Feature" style="rounded=1;whiteSpace=wrap;html=1;fillColor=#d5e8d4;strokeColor=#82b366;" vertex="1" parent="1">
          <mxGeometry x="890" y="50" width="110" height="30" as="geometry" />
        </mxCell>
        <mxCell id="gJvKJR8NiEOerQSg6qCT-5" value="" style="ellipse;html=1;shape=startState;fillColor=#000000;strokeColor=#ff0000;" vertex="1" parent="1">
          <mxGeometry x="40" y="140" width="30" height="30" as="geometry" />
        </mxCell>
        <mxCell id="gJvKJR8NiEOerQSg6qCT-6" value="" style="edgeStyle=orthogonalEdgeStyle;html=1;verticalAlign=bottom;endArrow=open;endSize=8;strokeColor=#ff0000;rounded=0;entryX=0;entryY=0.5;entryDx=0;entryDy=0;" edge="1" source="gJvKJR8NiEOerQSg6qCT-5" parent="1" target="gJvKJR8NiEOerQSg6qCT-7">
          <mxGeometry relative="1" as="geometry">
            <mxPoint x="55" y="230" as="targetPoint" />
          </mxGeometry>
        </mxCell>
        <mxCell id="gJvKJR8NiEOerQSg6qCT-13" style="edgeStyle=orthogonalEdgeStyle;rounded=0;orthogonalLoop=1;jettySize=auto;html=1;exitX=1;exitY=0.5;exitDx=0;exitDy=0;entryX=0.5;entryY=1;entryDx=0;entryDy=0;" edge="1" parent="1" source="gJvKJR8NiEOerQSg6qCT-7" target="gJvKJR8NiEOerQSg6qCT-12">
          <mxGeometry relative="1" as="geometry" />
        </mxCell>
        <mxCell id="gJvKJR8NiEOerQSg6qCT-7" value="" style="ellipse;whiteSpace=wrap;html=1;aspect=fixed;direction=south;fillColor=#dae8fc;strokeColor=#6c8ebf;" vertex="1" parent="1">
          <mxGeometry x="25" y="230" width="60" height="60" as="geometry" />
        </mxCell>
        <mxCell id="gJvKJR8NiEOerQSg6qCT-9" value="" style="endArrow=classic;html=1;rounded=0;exitX=0.5;exitY=0;exitDx=0;exitDy=0;entryX=0.5;entryY=1;entryDx=0;entryDy=0;" edge="1" parent="1" source="gJvKJR8NiEOerQSg6qCT-7" target="gJvKJR8NiEOerQSg6qCT-10">
          <mxGeometry width="50" height="50" relative="1" as="geometry">
            <mxPoint x="85" y="260" as="sourcePoint" />
            <mxPoint x="550" y="260" as="targetPoint" />
          </mxGeometry>
        </mxCell>
        <mxCell id="gJvKJR8NiEOerQSg6qCT-10" value="" style="ellipse;whiteSpace=wrap;html=1;aspect=fixed;direction=south;fillColor=#dae8fc;strokeColor=#6c8ebf;" vertex="1" parent="1">
          <mxGeometry x="670" y="230" width="60" height="60" as="geometry" />
        </mxCell>
        <mxCell id="gJvKJR8NiEOerQSg6qCT-11" value="v0.1" style="shape=note;whiteSpace=wrap;html=1;backgroundOutline=1;darkOpacity=0.05;" vertex="1" parent="1">
          <mxGeometry x="525" y="140" width="110" height="65" as="geometry" />
        </mxCell>
        <mxCell id="gJvKJR8NiEOerQSg6qCT-15" style="edgeStyle=orthogonalEdgeStyle;rounded=0;orthogonalLoop=1;jettySize=auto;html=1;exitX=0.5;exitY=0;exitDx=0;exitDy=0;" edge="1" parent="1" source="gJvKJR8NiEOerQSg6qCT-12" target="gJvKJR8NiEOerQSg6qCT-14">
          <mxGeometry relative="1" as="geometry" />
        </mxCell>
        <mxCell id="gJvKJR8NiEOerQSg6qCT-22" style="edgeStyle=orthogonalEdgeStyle;rounded=0;orthogonalLoop=1;jettySize=auto;html=1;exitX=1;exitY=0.5;exitDx=0;exitDy=0;entryX=0.5;entryY=1;entryDx=0;entryDy=0;" edge="1" parent="1" source="gJvKJR8NiEOerQSg6qCT-12" target="gJvKJR8NiEOerQSg6qCT-16">
          <mxGeometry relative="1" as="geometry">
            <Array as="points">
              <mxPoint x="115" y="400" />
            </Array>
          </mxGeometry>
        </mxCell>
        <mxCell id="gJvKJR8NiEOerQSg6qCT-12" value="" style="ellipse;whiteSpace=wrap;html=1;aspect=fixed;direction=south;fillColor=#f8cecc;strokeColor=#b85450;" vertex="1" parent="1">
          <mxGeometry x="95" y="330" width="40" height="40" as="geometry" />
        </mxCell>
        <mxCell id="gJvKJR8NiEOerQSg6qCT-27" value="" style="edgeStyle=orthogonalEdgeStyle;rounded=0;orthogonalLoop=1;jettySize=auto;html=1;" edge="1" parent="1" source="gJvKJR8NiEOerQSg6qCT-14" target="gJvKJR8NiEOerQSg6qCT-10">
          <mxGeometry relative="1" as="geometry" />
        </mxCell>
        <mxCell id="gJvKJR8NiEOerQSg6qCT-14" value="" style="ellipse;whiteSpace=wrap;html=1;aspect=fixed;direction=south;fillColor=#f8cecc;strokeColor=#b85450;" vertex="1" parent="1">
          <mxGeometry x="620" y="330" width="40" height="40" as="geometry" />
        </mxCell>
        <mxCell id="gJvKJR8NiEOerQSg6qCT-23" style="edgeStyle=orthogonalEdgeStyle;rounded=0;orthogonalLoop=1;jettySize=auto;html=1;exitX=0.5;exitY=0;exitDx=0;exitDy=0;" edge="1" parent="1" source="gJvKJR8NiEOerQSg6qCT-16" target="gJvKJR8NiEOerQSg6qCT-17">
          <mxGeometry relative="1" as="geometry" />
        </mxCell>
        <mxCell id="gJvKJR8NiEOerQSg6qCT-16" value="" style="ellipse;whiteSpace=wrap;html=1;aspect=fixed;direction=south;fillColor=#d5e8d4;strokeColor=#82b366;" vertex="1" parent="1">
          <mxGeometry x="130" y="380" width="40" height="40" as="geometry" />
        </mxCell>
        <mxCell id="gJvKJR8NiEOerQSg6qCT-24" value="" style="edgeStyle=orthogonalEdgeStyle;rounded=0;orthogonalLoop=1;jettySize=auto;html=1;" edge="1" parent="1" source="gJvKJR8NiEOerQSg6qCT-17" target="gJvKJR8NiEOerQSg6qCT-18">
          <mxGeometry relative="1" as="geometry" />
        </mxCell>
        <mxCell id="gJvKJR8NiEOerQSg6qCT-17" value="" style="ellipse;whiteSpace=wrap;html=1;aspect=fixed;direction=south;fillColor=#d5e8d4;strokeColor=#82b366;" vertex="1" parent="1">
          <mxGeometry x="240" y="380" width="40" height="40" as="geometry" />
        </mxCell>
        <mxCell id="gJvKJR8NiEOerQSg6qCT-25" value="" style="edgeStyle=orthogonalEdgeStyle;rounded=0;orthogonalLoop=1;jettySize=auto;html=1;" edge="1" parent="1" source="gJvKJR8NiEOerQSg6qCT-18" target="gJvKJR8NiEOerQSg6qCT-19">
          <mxGeometry relative="1" as="geometry" />
        </mxCell>
        <mxCell id="gJvKJR8NiEOerQSg6qCT-18" value="" style="ellipse;whiteSpace=wrap;html=1;aspect=fixed;direction=south;fillColor=#d5e8d4;strokeColor=#82b366;" vertex="1" parent="1">
          <mxGeometry x="350" y="380" width="40" height="40" as="geometry" />
        </mxCell>
        <mxCell id="gJvKJR8NiEOerQSg6qCT-26" value="" style="edgeStyle=orthogonalEdgeStyle;rounded=0;orthogonalLoop=1;jettySize=auto;html=1;" edge="1" parent="1" source="gJvKJR8NiEOerQSg6qCT-19" target="gJvKJR8NiEOerQSg6qCT-20">
          <mxGeometry relative="1" as="geometry" />
        </mxCell>
        <mxCell id="gJvKJR8NiEOerQSg6qCT-19" value="" style="ellipse;whiteSpace=wrap;html=1;aspect=fixed;direction=south;fillColor=#d5e8d4;strokeColor=#82b366;" vertex="1" parent="1">
          <mxGeometry x="460" y="380" width="40" height="40" as="geometry" />
        </mxCell>
        <mxCell id="gJvKJR8NiEOerQSg6qCT-28" style="edgeStyle=orthogonalEdgeStyle;rounded=0;orthogonalLoop=1;jettySize=auto;html=1;exitX=0;exitY=0.5;exitDx=0;exitDy=0;entryX=0.5;entryY=1;entryDx=0;entryDy=0;" edge="1" parent="1" source="gJvKJR8NiEOerQSg6qCT-20" target="gJvKJR8NiEOerQSg6qCT-14">
          <mxGeometry relative="1" as="geometry" />
        </mxCell>
        <mxCell id="gJvKJR8NiEOerQSg6qCT-20" value="" style="ellipse;whiteSpace=wrap;html=1;aspect=fixed;direction=south;fillColor=#d5e8d4;strokeColor=#82b366;" vertex="1" parent="1">
          <mxGeometry x="570" y="380" width="40" height="40" as="geometry" />
        </mxCell>
        <mxCell id="gJvKJR8NiEOerQSg6qCT-29" value="Цветовая раскраска синтаксических конструкций&lt;span&gt;	&lt;/span&gt;" style="shape=note;whiteSpace=wrap;html=1;backgroundOutline=1;darkOpacity=0.05;" vertex="1" parent="1">
          <mxGeometry x="130" y="265" width="150" height="65" as="geometry" />
        </mxCell>
        <mxCell id="gJvKJR8NiEOerQSg6qCT-30" value="Тест подсвечивания синтаксических конструкций" style="shape=note;whiteSpace=wrap;html=1;backgroundOutline=1;darkOpacity=0.05;" vertex="1" parent="1">
          <mxGeometry x="500" y="265" width="150" height="65" as="geometry" />
        </mxCell>
        <mxCell id="gJvKJR8NiEOerQSg6qCT-31" value="&lt;font style=&quot;font-size: 10px&quot;&gt;Обнаружение простых синтаксических конструкций&lt;/font&gt;&lt;span&gt;&lt;/span&gt;" style="shape=note;whiteSpace=wrap;html=1;backgroundOutline=1;darkOpacity=0.05;" vertex="1" parent="1">
          <mxGeometry x="111.88" y="450" width="76.25" height="65" as="geometry" />
        </mxCell>
        <mxCell id="gJvKJR8NiEOerQSg6qCT-32" value="&lt;font style=&quot;font-size: 10px&quot;&gt;Обнаружение синтаксических конструкций блоком кода&lt;/font&gt;&lt;span&gt;&lt;/span&gt;" style="shape=note;whiteSpace=wrap;html=1;backgroundOutline=1;darkOpacity=0.05;" vertex="1" parent="1">
          <mxGeometry x="221.87" y="450" width="76.25" height="65" as="geometry" />
        </mxCell>
        <mxCell id="gJvKJR8NiEOerQSg6qCT-33" value="&lt;span style=&quot;font-size: 10px&quot;&gt;Подтягивание синтаксических конструкций из библиотек&lt;/span&gt;" style="shape=note;whiteSpace=wrap;html=1;backgroundOutline=1;darkOpacity=0.05;" vertex="1" parent="1">
          <mxGeometry x="331.87" y="450" width="76.25" height="65" as="geometry" />
        </mxCell>
        <mxCell id="gJvKJR8NiEOerQSg6qCT-34" value="&lt;span style=&quot;font-size: 10px&quot;&gt;Редактирование настроек подсвечивания С.К.&lt;/span&gt;" style="shape=note;whiteSpace=wrap;html=1;backgroundOutline=1;darkOpacity=0.05;" vertex="1" parent="1">
          <mxGeometry x="441.88" y="450" width="76.25" height="65" as="geometry" />
        </mxCell>
        <mxCell id="gJvKJR8NiEOerQSg6qCT-35" value="&lt;span style=&quot;font-size: 10px&quot;&gt;Выключение подсвечивания С.К.&lt;/span&gt;" style="shape=note;whiteSpace=wrap;html=1;backgroundOutline=1;darkOpacity=0.05;" vertex="1" parent="1">
          <mxGeometry x="551.87" y="450" width="76.25" height="65" as="geometry" />
        </mxCell>
        <mxCell id="gJvKJR8NiEOerQSg6qCT-67" style="edgeStyle=orthogonalEdgeStyle;rounded=0;orthogonalLoop=1;jettySize=auto;html=1;exitX=0.5;exitY=0;exitDx=0;exitDy=0;entryX=0.5;entryY=1;entryDx=0;entryDy=0;" edge="1" source="gJvKJR8NiEOerQSg6qCT-10" target="gJvKJR8NiEOerQSg6qCT-74" parent="1">
          <mxGeometry relative="1" as="geometry">
            <mxPoint x="799.9999999999995" y="290.0000000000002" as="sourcePoint" />
            <Array as="points">
              <mxPoint x="750" y="260" />
              <mxPoint x="750" y="350" />
            </Array>
          </mxGeometry>
        </mxCell>
        <mxCell id="gJvKJR8NiEOerQSg6qCT-69" value="" style="endArrow=classic;html=1;rounded=0;exitX=0.5;exitY=0;exitDx=0;exitDy=0;entryX=0.5;entryY=1;entryDx=0;entryDy=0;" edge="1" source="gJvKJR8NiEOerQSg6qCT-10" target="gJvKJR8NiEOerQSg6qCT-70" parent="1">
          <mxGeometry width="50" height="50" relative="1" as="geometry">
            <mxPoint x="829.9999999999995" y="260" as="sourcePoint" />
            <mxPoint x="1295" y="260" as="targetPoint" />
          </mxGeometry>
        </mxCell>
        <mxCell id="gJvKJR8NiEOerQSg6qCT-70" value="" style="ellipse;whiteSpace=wrap;html=1;aspect=fixed;direction=south;fillColor=#dae8fc;strokeColor=#6c8ebf;" vertex="1" parent="1">
          <mxGeometry x="1335" y="230" width="60" height="60" as="geometry" />
        </mxCell>
        <mxCell id="gJvKJR8NiEOerQSg6qCT-71" value="v0.2" style="shape=note;whiteSpace=wrap;html=1;backgroundOutline=1;darkOpacity=0.05;" vertex="1" parent="1">
          <mxGeometry x="1315" y="140" width="110" height="65" as="geometry" />
        </mxCell>
        <mxCell id="gJvKJR8NiEOerQSg6qCT-72" style="edgeStyle=orthogonalEdgeStyle;rounded=0;orthogonalLoop=1;jettySize=auto;html=1;exitX=0.5;exitY=0;exitDx=0;exitDy=0;" edge="1" source="gJvKJR8NiEOerQSg6qCT-74" target="gJvKJR8NiEOerQSg6qCT-76" parent="1">
          <mxGeometry relative="1" as="geometry" />
        </mxCell>
        <mxCell id="gJvKJR8NiEOerQSg6qCT-73" style="edgeStyle=orthogonalEdgeStyle;rounded=0;orthogonalLoop=1;jettySize=auto;html=1;exitX=1;exitY=0.5;exitDx=0;exitDy=0;entryX=0.5;entryY=1;entryDx=0;entryDy=0;" edge="1" source="gJvKJR8NiEOerQSg6qCT-74" target="gJvKJR8NiEOerQSg6qCT-78" parent="1">
          <mxGeometry relative="1" as="geometry">
            <Array as="points">
              <mxPoint x="780" y="400" />
            </Array>
          </mxGeometry>
        </mxCell>
        <mxCell id="gJvKJR8NiEOerQSg6qCT-74" value="" style="ellipse;whiteSpace=wrap;html=1;aspect=fixed;direction=south;fillColor=#f8cecc;strokeColor=#b85450;" vertex="1" parent="1">
          <mxGeometry x="760" y="330" width="40" height="40" as="geometry" />
        </mxCell>
        <mxCell id="gJvKJR8NiEOerQSg6qCT-75" value="" style="edgeStyle=orthogonalEdgeStyle;rounded=0;orthogonalLoop=1;jettySize=auto;html=1;" edge="1" source="gJvKJR8NiEOerQSg6qCT-76" target="gJvKJR8NiEOerQSg6qCT-70" parent="1">
          <mxGeometry relative="1" as="geometry" />
        </mxCell>
        <mxCell id="gJvKJR8NiEOerQSg6qCT-76" value="" style="ellipse;whiteSpace=wrap;html=1;aspect=fixed;direction=south;fillColor=#f8cecc;strokeColor=#b85450;" vertex="1" parent="1">
          <mxGeometry x="1285" y="330" width="40" height="40" as="geometry" />
        </mxCell>
        <mxCell id="gJvKJR8NiEOerQSg6qCT-77" style="edgeStyle=orthogonalEdgeStyle;rounded=0;orthogonalLoop=1;jettySize=auto;html=1;exitX=0.5;exitY=0;exitDx=0;exitDy=0;" edge="1" source="gJvKJR8NiEOerQSg6qCT-78" target="gJvKJR8NiEOerQSg6qCT-80" parent="1">
          <mxGeometry relative="1" as="geometry" />
        </mxCell>
        <mxCell id="gJvKJR8NiEOerQSg6qCT-78" value="" style="ellipse;whiteSpace=wrap;html=1;aspect=fixed;direction=south;fillColor=#d5e8d4;strokeColor=#82b366;" vertex="1" parent="1">
          <mxGeometry x="795" y="380" width="40" height="40" as="geometry" />
        </mxCell>
        <mxCell id="gJvKJR8NiEOerQSg6qCT-79" value="" style="edgeStyle=orthogonalEdgeStyle;rounded=0;orthogonalLoop=1;jettySize=auto;html=1;" edge="1" source="gJvKJR8NiEOerQSg6qCT-80" target="gJvKJR8NiEOerQSg6qCT-82" parent="1">
          <mxGeometry relative="1" as="geometry" />
        </mxCell>
        <mxCell id="gJvKJR8NiEOerQSg6qCT-80" value="" style="ellipse;whiteSpace=wrap;html=1;aspect=fixed;direction=south;fillColor=#d5e8d4;strokeColor=#82b366;" vertex="1" parent="1">
          <mxGeometry x="905" y="380" width="40" height="40" as="geometry" />
        </mxCell>
        <mxCell id="gJvKJR8NiEOerQSg6qCT-81" value="" style="edgeStyle=orthogonalEdgeStyle;rounded=0;orthogonalLoop=1;jettySize=auto;html=1;" edge="1" source="gJvKJR8NiEOerQSg6qCT-82" target="gJvKJR8NiEOerQSg6qCT-84" parent="1">
          <mxGeometry relative="1" as="geometry" />
        </mxCell>
        <mxCell id="gJvKJR8NiEOerQSg6qCT-82" value="" style="ellipse;whiteSpace=wrap;html=1;aspect=fixed;direction=south;fillColor=#d5e8d4;strokeColor=#82b366;" vertex="1" parent="1">
          <mxGeometry x="1015" y="380" width="40" height="40" as="geometry" />
        </mxCell>
        <mxCell id="gJvKJR8NiEOerQSg6qCT-83" value="" style="edgeStyle=orthogonalEdgeStyle;rounded=0;orthogonalLoop=1;jettySize=auto;html=1;" edge="1" source="gJvKJR8NiEOerQSg6qCT-84" target="gJvKJR8NiEOerQSg6qCT-86" parent="1">
          <mxGeometry relative="1" as="geometry" />
        </mxCell>
        <mxCell id="gJvKJR8NiEOerQSg6qCT-84" value="" style="ellipse;whiteSpace=wrap;html=1;aspect=fixed;direction=south;fillColor=#d5e8d4;strokeColor=#82b366;" vertex="1" parent="1">
          <mxGeometry x="1125" y="380" width="40" height="40" as="geometry" />
        </mxCell>
        <mxCell id="gJvKJR8NiEOerQSg6qCT-85" style="edgeStyle=orthogonalEdgeStyle;rounded=0;orthogonalLoop=1;jettySize=auto;html=1;exitX=0;exitY=0.5;exitDx=0;exitDy=0;entryX=0.5;entryY=1;entryDx=0;entryDy=0;" edge="1" source="gJvKJR8NiEOerQSg6qCT-86" target="gJvKJR8NiEOerQSg6qCT-76" parent="1">
          <mxGeometry relative="1" as="geometry" />
        </mxCell>
        <mxCell id="gJvKJR8NiEOerQSg6qCT-86" value="" style="ellipse;whiteSpace=wrap;html=1;aspect=fixed;direction=south;fillColor=#d5e8d4;strokeColor=#82b366;" vertex="1" parent="1">
          <mxGeometry x="1235" y="380" width="40" height="40" as="geometry" />
        </mxCell>
        <mxCell id="gJvKJR8NiEOerQSg6qCT-87" value="Отображение номера строк&lt;span&gt;&lt;/span&gt;" style="shape=note;whiteSpace=wrap;html=1;backgroundOutline=1;darkOpacity=0.05;" vertex="1" parent="1">
          <mxGeometry x="795" y="265" width="150" height="65" as="geometry" />
        </mxCell>
        <mxCell id="gJvKJR8NiEOerQSg6qCT-88" value="Тест отображение номера строк" style="shape=note;whiteSpace=wrap;html=1;backgroundOutline=1;darkOpacity=0.05;" vertex="1" parent="1">
          <mxGeometry x="1165" y="265" width="150" height="65" as="geometry" />
        </mxCell>
        <mxCell id="gJvKJR8NiEOerQSg6qCT-89" value="&lt;span style=&quot;font-size: 10px&quot;&gt;&quot;Простое&quot; отображение номера строк&lt;/span&gt;" style="shape=note;whiteSpace=wrap;html=1;backgroundOutline=1;darkOpacity=0.05;" vertex="1" parent="1">
          <mxGeometry x="776.88" y="450" width="76.25" height="65" as="geometry" />
        </mxCell>
        <mxCell id="gJvKJR8NiEOerQSg6qCT-90" value="&lt;span style=&quot;font-size: 10px&quot;&gt;Редактирование настроек отображения номера строк&lt;/span&gt;" style="shape=note;whiteSpace=wrap;html=1;backgroundOutline=1;darkOpacity=0.05;" vertex="1" parent="1">
          <mxGeometry x="886.8699999999999" y="450" width="76.25" height="65" as="geometry" />
        </mxCell>
        <mxCell id="gJvKJR8NiEOerQSg6qCT-91" value="&lt;span style=&quot;font-size: 10px&quot;&gt;Удаление настроек отображения номера строк&lt;/span&gt;" style="shape=note;whiteSpace=wrap;html=1;backgroundOutline=1;darkOpacity=0.05;" vertex="1" parent="1">
          <mxGeometry x="996.8699999999999" y="450" width="76.25" height="65" as="geometry" />
        </mxCell>
        <mxCell id="gJvKJR8NiEOerQSg6qCT-92" value="&lt;span style=&quot;font-size: 10px&quot;&gt;Подтягивание дополнительных номеров строк из других библиотек&lt;/span&gt;" style="shape=note;whiteSpace=wrap;html=1;backgroundOutline=1;darkOpacity=0.05;" vertex="1" parent="1">
          <mxGeometry x="1106.88" y="450" width="76.25" height="65" as="geometry" />
        </mxCell>
        <mxCell id="gJvKJR8NiEOerQSg6qCT-93" value="&lt;span style=&quot;font-size: 10px&quot;&gt;Быстрые клавиши отображения номера строк&lt;/span&gt;" style="shape=note;whiteSpace=wrap;html=1;backgroundOutline=1;darkOpacity=0.05;" vertex="1" parent="1">
          <mxGeometry x="1216.87" y="450" width="76.25" height="65" as="geometry" />
        </mxCell>
        <mxCell id="gJvKJR8NiEOerQSg6qCT-94" style="edgeStyle=orthogonalEdgeStyle;rounded=0;orthogonalLoop=1;jettySize=auto;html=1;exitX=0.5;exitY=0;exitDx=0;exitDy=0;entryX=0.5;entryY=1;entryDx=0;entryDy=0;" edge="1" target="gJvKJR8NiEOerQSg6qCT-100" parent="1">
          <mxGeometry relative="1" as="geometry">
            <mxPoint x="1395" y="260" as="sourcePoint" />
            <Array as="points">
              <mxPoint x="1415" y="260" />
              <mxPoint x="1415" y="350" />
            </Array>
          </mxGeometry>
        </mxCell>
        <mxCell id="gJvKJR8NiEOerQSg6qCT-95" value="" style="endArrow=classic;html=1;rounded=0;exitX=0.5;exitY=0;exitDx=0;exitDy=0;entryX=0.5;entryY=1;entryDx=0;entryDy=0;" edge="1" target="gJvKJR8NiEOerQSg6qCT-96" parent="1">
          <mxGeometry width="50" height="50" relative="1" as="geometry">
            <mxPoint x="1395" y="260" as="sourcePoint" />
            <mxPoint x="1960" y="260" as="targetPoint" />
          </mxGeometry>
        </mxCell>
        <mxCell id="gJvKJR8NiEOerQSg6qCT-96" value="" style="ellipse;whiteSpace=wrap;html=1;aspect=fixed;direction=south;fillColor=#dae8fc;strokeColor=#6c8ebf;" vertex="1" parent="1">
          <mxGeometry x="2000" y="230" width="60" height="60" as="geometry" />
        </mxCell>
        <mxCell id="gJvKJR8NiEOerQSg6qCT-97" value="v0.3" style="shape=note;whiteSpace=wrap;html=1;backgroundOutline=1;darkOpacity=0.05;" vertex="1" parent="1">
          <mxGeometry x="1980" y="140" width="110" height="65" as="geometry" />
        </mxCell>
        <mxCell id="gJvKJR8NiEOerQSg6qCT-98" style="edgeStyle=orthogonalEdgeStyle;rounded=0;orthogonalLoop=1;jettySize=auto;html=1;exitX=0.5;exitY=0;exitDx=0;exitDy=0;" edge="1" source="gJvKJR8NiEOerQSg6qCT-100" target="gJvKJR8NiEOerQSg6qCT-102" parent="1">
          <mxGeometry relative="1" as="geometry" />
        </mxCell>
        <mxCell id="gJvKJR8NiEOerQSg6qCT-99" style="edgeStyle=orthogonalEdgeStyle;rounded=0;orthogonalLoop=1;jettySize=auto;html=1;exitX=1;exitY=0.5;exitDx=0;exitDy=0;entryX=0.5;entryY=1;entryDx=0;entryDy=0;" edge="1" source="gJvKJR8NiEOerQSg6qCT-100" target="gJvKJR8NiEOerQSg6qCT-104" parent="1">
          <mxGeometry relative="1" as="geometry">
            <Array as="points">
              <mxPoint x="1445" y="400" />
            </Array>
          </mxGeometry>
        </mxCell>
        <mxCell id="gJvKJR8NiEOerQSg6qCT-100" value="" style="ellipse;whiteSpace=wrap;html=1;aspect=fixed;direction=south;fillColor=#f8cecc;strokeColor=#b85450;" vertex="1" parent="1">
          <mxGeometry x="1425" y="330" width="40" height="40" as="geometry" />
        </mxCell>
        <mxCell id="gJvKJR8NiEOerQSg6qCT-101" value="" style="edgeStyle=orthogonalEdgeStyle;rounded=0;orthogonalLoop=1;jettySize=auto;html=1;" edge="1" source="gJvKJR8NiEOerQSg6qCT-102" target="gJvKJR8NiEOerQSg6qCT-96" parent="1">
          <mxGeometry relative="1" as="geometry" />
        </mxCell>
        <mxCell id="gJvKJR8NiEOerQSg6qCT-102" value="" style="ellipse;whiteSpace=wrap;html=1;aspect=fixed;direction=south;fillColor=#f8cecc;strokeColor=#b85450;" vertex="1" parent="1">
          <mxGeometry x="1950" y="330" width="40" height="40" as="geometry" />
        </mxCell>
        <mxCell id="gJvKJR8NiEOerQSg6qCT-103" style="edgeStyle=orthogonalEdgeStyle;rounded=0;orthogonalLoop=1;jettySize=auto;html=1;exitX=0.5;exitY=0;exitDx=0;exitDy=0;" edge="1" source="gJvKJR8NiEOerQSg6qCT-104" target="gJvKJR8NiEOerQSg6qCT-106" parent="1">
          <mxGeometry relative="1" as="geometry" />
        </mxCell>
        <mxCell id="gJvKJR8NiEOerQSg6qCT-104" value="" style="ellipse;whiteSpace=wrap;html=1;aspect=fixed;direction=south;fillColor=#d5e8d4;strokeColor=#82b366;" vertex="1" parent="1">
          <mxGeometry x="1460" y="380" width="40" height="40" as="geometry" />
        </mxCell>
        <mxCell id="gJvKJR8NiEOerQSg6qCT-105" value="" style="edgeStyle=orthogonalEdgeStyle;rounded=0;orthogonalLoop=1;jettySize=auto;html=1;" edge="1" source="gJvKJR8NiEOerQSg6qCT-106" target="gJvKJR8NiEOerQSg6qCT-108" parent="1">
          <mxGeometry relative="1" as="geometry" />
        </mxCell>
        <mxCell id="gJvKJR8NiEOerQSg6qCT-106" value="" style="ellipse;whiteSpace=wrap;html=1;aspect=fixed;direction=south;fillColor=#d5e8d4;strokeColor=#82b366;" vertex="1" parent="1">
          <mxGeometry x="1570" y="380" width="40" height="40" as="geometry" />
        </mxCell>
        <mxCell id="gJvKJR8NiEOerQSg6qCT-107" value="" style="edgeStyle=orthogonalEdgeStyle;rounded=0;orthogonalLoop=1;jettySize=auto;html=1;" edge="1" source="gJvKJR8NiEOerQSg6qCT-108" target="gJvKJR8NiEOerQSg6qCT-110" parent="1">
          <mxGeometry relative="1" as="geometry" />
        </mxCell>
        <mxCell id="gJvKJR8NiEOerQSg6qCT-108" value="" style="ellipse;whiteSpace=wrap;html=1;aspect=fixed;direction=south;fillColor=#d5e8d4;strokeColor=#82b366;" vertex="1" parent="1">
          <mxGeometry x="1680" y="380" width="40" height="40" as="geometry" />
        </mxCell>
        <mxCell id="gJvKJR8NiEOerQSg6qCT-109" value="" style="edgeStyle=orthogonalEdgeStyle;rounded=0;orthogonalLoop=1;jettySize=auto;html=1;" edge="1" source="gJvKJR8NiEOerQSg6qCT-110" target="gJvKJR8NiEOerQSg6qCT-112" parent="1">
          <mxGeometry relative="1" as="geometry" />
        </mxCell>
        <mxCell id="gJvKJR8NiEOerQSg6qCT-110" value="" style="ellipse;whiteSpace=wrap;html=1;aspect=fixed;direction=south;fillColor=#d5e8d4;strokeColor=#82b366;" vertex="1" parent="1">
          <mxGeometry x="1790" y="380" width="40" height="40" as="geometry" />
        </mxCell>
        <mxCell id="gJvKJR8NiEOerQSg6qCT-111" style="edgeStyle=orthogonalEdgeStyle;rounded=0;orthogonalLoop=1;jettySize=auto;html=1;exitX=0;exitY=0.5;exitDx=0;exitDy=0;entryX=0.5;entryY=1;entryDx=0;entryDy=0;" edge="1" source="gJvKJR8NiEOerQSg6qCT-112" target="gJvKJR8NiEOerQSg6qCT-102" parent="1">
          <mxGeometry relative="1" as="geometry" />
        </mxCell>
        <mxCell id="gJvKJR8NiEOerQSg6qCT-112" value="" style="ellipse;whiteSpace=wrap;html=1;aspect=fixed;direction=south;fillColor=#d5e8d4;strokeColor=#82b366;" vertex="1" parent="1">
          <mxGeometry x="1900" y="380" width="40" height="40" as="geometry" />
        </mxCell>
        <mxCell id="gJvKJR8NiEOerQSg6qCT-113" value="Отслеживание изменений&lt;span&gt;&lt;/span&gt;" style="shape=note;whiteSpace=wrap;html=1;backgroundOutline=1;darkOpacity=0.05;" vertex="1" parent="1">
          <mxGeometry x="1460" y="265" width="150" height="65" as="geometry" />
        </mxCell>
        <mxCell id="gJvKJR8NiEOerQSg6qCT-114" value="Тест отслеживания изменений" style="shape=note;whiteSpace=wrap;html=1;backgroundOutline=1;darkOpacity=0.05;" vertex="1" parent="1">
          <mxGeometry x="1830" y="265" width="150" height="65" as="geometry" />
        </mxCell>
        <mxCell id="gJvKJR8NiEOerQSg6qCT-115" value="&lt;span style=&quot;font-size: 10px&quot;&gt;Отображение изменений&lt;/span&gt;" style="shape=note;whiteSpace=wrap;html=1;backgroundOutline=1;darkOpacity=0.05;" vertex="1" parent="1">
          <mxGeometry x="1441.88" y="450" width="76.25" height="65" as="geometry" />
        </mxCell>
        <mxCell id="gJvKJR8NiEOerQSg6qCT-116" value="&lt;span style=&quot;font-size: 10px&quot;&gt;Редактирование истории изменений&lt;/span&gt;" style="shape=note;whiteSpace=wrap;html=1;backgroundOutline=1;darkOpacity=0.05;" vertex="1" parent="1">
          <mxGeometry x="1551.87" y="450" width="76.25" height="65" as="geometry" />
        </mxCell>
        <mxCell id="gJvKJR8NiEOerQSg6qCT-117" value="&lt;span style=&quot;font-size: 10px&quot;&gt;Редактирование настроек отслеживания изменений&lt;/span&gt;" style="shape=note;whiteSpace=wrap;html=1;backgroundOutline=1;darkOpacity=0.05;" vertex="1" parent="1">
          <mxGeometry x="1661.87" y="450" width="76.25" height="65" as="geometry" />
        </mxCell>
        <mxCell id="gJvKJR8NiEOerQSg6qCT-118" value="&lt;span style=&quot;font-size: 10px&quot;&gt;Подтягивание изменений файла из .git файлов&lt;/span&gt;" style="shape=note;whiteSpace=wrap;html=1;backgroundOutline=1;darkOpacity=0.05;" vertex="1" parent="1">
          <mxGeometry x="1771.88" y="450" width="76.25" height="65" as="geometry" />
        </mxCell>
        <mxCell id="gJvKJR8NiEOerQSg6qCT-119" value="&lt;span style=&quot;font-size: 10px&quot;&gt;Отключение отслеживания изменения&lt;/span&gt;" style="shape=note;whiteSpace=wrap;html=1;backgroundOutline=1;darkOpacity=0.05;" vertex="1" parent="1">
          <mxGeometry x="1881.87" y="450" width="76.25" height="65" as="geometry" />
        </mxCell>
      </root>
    </mxGraphModel>
  </diagram>
</mxfile>
